<svg width="375" height="325" viewBox="0 0 375 325" fill="none" xmlns="http://www.w3.org/2000/svg">
<g clip-path="url(#clip0_79_233)">
<mask id="path-1-outside-1_79_233" maskUnits="userSpaceOnUse" x="119" y="227" width="214" height="96" fill="black">
<rect fill="white" x="119" y="227" width="214" height="96"/>
<path d="M149.25 301.994C143.331 301.994 138.265 300.822 134.051 298.479C129.837 296.111 126.606 292.821 124.357 288.607C122.107 284.369 120.983 279.456 120.983 273.869C120.983 268.282 122.107 263.382 124.357 259.168C126.606 254.93 129.837 251.639 134.051 249.295C138.265 246.928 143.331 245.744 149.25 245.744C155.169 245.744 160.235 246.928 164.449 249.295C168.663 251.639 171.894 254.93 174.143 259.168C176.393 263.382 177.517 268.282 177.517 273.869C177.517 279.456 176.393 284.369 174.143 288.607C171.894 292.821 168.663 296.111 164.449 298.479C160.235 300.822 155.169 301.994 149.25 301.994ZM149.392 287.506C151.049 287.506 152.482 286.949 153.689 285.837C154.896 284.724 155.831 283.138 156.494 281.078C157.157 279.018 157.489 276.568 157.489 273.727C157.489 270.863 157.157 268.412 156.494 266.376C155.831 264.317 154.896 262.731 153.689 261.618C152.482 260.505 151.049 259.949 149.392 259.949C147.64 259.949 146.137 260.505 144.882 261.618C143.627 262.731 142.669 264.317 142.006 266.376C141.343 268.412 141.011 270.863 141.011 273.727C141.011 276.568 141.343 279.018 142.006 281.078C142.669 283.138 143.627 284.724 144.882 285.837C146.137 286.949 147.64 287.506 149.392 287.506ZM185.472 321.455V246.455H204.932V255.972H205.358C206.068 254.125 207.11 252.432 208.483 250.893C209.856 249.331 211.561 248.088 213.597 247.165C215.633 246.218 218 245.744 220.699 245.744C224.297 245.744 227.718 246.703 230.962 248.621C234.229 250.538 236.88 253.557 238.916 257.676C240.976 261.795 242.006 267.146 242.006 273.727C242.006 280.025 241.023 285.245 239.058 289.388C237.117 293.531 234.513 296.62 231.246 298.656C228.002 300.692 224.439 301.71 220.557 301.71C218 301.71 215.715 301.296 213.703 300.467C211.714 299.615 210.01 298.467 208.589 297.023C207.193 295.555 206.116 293.898 205.358 292.051H205.074V321.455H185.472ZM204.648 273.727C204.648 276.379 204.991 278.675 205.678 280.616C206.388 282.534 207.382 284.026 208.661 285.091C209.963 286.133 211.513 286.653 213.312 286.653C215.112 286.653 216.639 286.144 217.893 285.126C219.172 284.085 220.143 282.605 220.805 280.688C221.492 278.746 221.835 276.426 221.835 273.727C221.835 271.028 221.492 268.72 220.805 266.803C220.143 264.861 219.172 263.382 217.893 262.364C216.639 261.322 215.112 260.801 213.312 260.801C211.513 260.801 209.963 261.322 208.661 262.364C207.382 263.382 206.388 264.861 205.678 266.803C204.991 268.72 204.648 271.028 204.648 273.727ZM300.076 264.21H282.036C281.941 263.098 281.551 262.139 280.864 261.334C280.177 260.529 279.29 259.913 278.201 259.487C277.135 259.037 275.952 258.812 274.65 258.812C272.969 258.812 271.525 259.12 270.317 259.736C269.11 260.351 268.518 261.227 268.542 262.364C268.518 263.169 268.861 263.914 269.571 264.601C270.305 265.287 271.714 265.82 273.797 266.199L284.877 268.188C290.464 269.205 294.619 270.922 297.341 273.337C300.087 275.728 301.472 278.936 301.496 282.96C301.472 286.843 300.312 290.216 298.016 293.081C295.743 295.922 292.63 298.124 288.676 299.686C284.747 301.225 280.26 301.994 275.218 301.994C266.884 301.994 260.362 300.29 255.651 296.881C250.963 293.472 248.347 288.973 247.803 283.386H267.263C267.524 285.115 268.376 286.452 269.82 287.399C271.288 288.322 273.134 288.784 275.36 288.784C277.159 288.784 278.639 288.476 279.799 287.861C280.982 287.245 281.586 286.369 281.61 285.233C281.586 284.191 281.065 283.363 280.047 282.747C279.053 282.132 277.49 281.634 275.36 281.256L265.701 279.551C260.137 278.58 255.971 276.734 253.201 274.011C250.431 271.289 249.058 267.785 249.081 263.5C249.058 259.712 250.052 256.504 252.064 253.876C254.1 251.225 257 249.213 260.765 247.839C264.552 246.443 269.039 245.744 274.223 245.744C282.107 245.744 288.321 247.378 292.867 250.645C297.436 253.912 299.839 258.434 300.076 264.21ZM331.734 228.273L329.887 278.273H313.694L311.848 228.273H331.734ZM321.791 302.136C319.045 302.136 316.689 301.178 314.724 299.26C312.783 297.319 311.824 294.963 311.848 292.193C311.824 289.494 312.783 287.186 314.724 285.268C316.689 283.351 319.045 282.392 321.791 282.392C324.395 282.392 326.691 283.351 328.68 285.268C330.692 287.186 331.71 289.494 331.734 292.193C331.71 294.04 331.225 295.721 330.278 297.236C329.355 298.727 328.147 299.923 326.656 300.822C325.164 301.698 323.543 302.136 321.791 302.136Z"/>
</mask>
<path d="M134.051 298.479L133.561 299.351L133.565 299.353L134.051 298.479ZM124.357 288.607L123.473 289.075L123.474 289.077L124.357 288.607ZM124.357 259.168L125.239 259.638L125.24 259.636L124.357 259.168ZM134.051 249.295L134.537 250.169L134.541 250.167L134.051 249.295ZM164.449 249.295L163.959 250.167L163.963 250.169L164.449 249.295ZM174.143 259.168L173.26 259.636L173.261 259.638L174.143 259.168ZM174.143 288.607L175.026 289.077L175.027 289.075L174.143 288.607ZM164.449 298.479L164.935 299.353L164.939 299.351L164.449 298.479ZM153.689 285.837L154.367 286.572L154.367 286.572L153.689 285.837ZM156.494 281.078L157.446 281.384L157.446 281.384L156.494 281.078ZM156.494 266.376L155.542 266.683L155.543 266.686L156.494 266.376ZM153.689 261.618L154.367 260.883L154.367 260.883L153.689 261.618ZM142.006 266.376L142.957 266.686L142.958 266.683L142.006 266.376ZM142.006 281.078L142.958 280.772L142.958 280.772L142.006 281.078ZM144.882 285.837L144.219 286.585L144.882 285.837ZM149.25 300.994C143.463 300.994 138.572 299.849 134.537 297.605L133.565 299.353C137.958 301.796 143.2 302.994 149.25 302.994V300.994ZM134.541 297.607C130.491 295.332 127.397 292.179 125.239 288.136L123.474 289.077C125.814 293.462 129.183 296.891 133.561 299.351L134.541 297.607ZM125.24 288.138C123.079 284.067 121.983 279.32 121.983 273.869H119.983C119.983 279.593 121.136 284.671 123.473 289.075L125.24 288.138ZM121.983 273.869C121.983 268.419 123.079 263.685 125.239 259.638L123.474 258.697C121.136 263.078 119.983 268.146 119.983 273.869H121.983ZM125.24 259.636C127.398 255.57 130.491 252.42 134.537 250.169L133.565 248.422C129.183 250.859 125.813 254.29 123.473 258.699L125.24 259.636ZM134.541 250.167C138.575 247.901 143.465 246.744 149.25 246.744V244.744C143.198 244.744 137.955 245.955 133.561 248.424L134.541 250.167ZM149.25 246.744C155.035 246.744 159.925 247.901 163.959 250.167L164.939 248.424C160.545 245.955 155.302 244.744 149.25 244.744V246.744ZM163.963 250.169C168.009 252.42 171.102 255.57 173.26 259.636L175.027 258.699C172.687 254.29 169.317 250.859 164.935 248.422L163.963 250.169ZM173.261 259.638C175.421 263.685 176.517 268.419 176.517 273.869H178.517C178.517 268.146 177.364 263.078 175.026 258.697L173.261 259.638ZM176.517 273.869C176.517 279.32 175.421 284.067 173.26 288.138L175.027 289.075C177.364 284.671 178.517 279.593 178.517 273.869H176.517ZM173.261 288.136C171.103 292.179 168.009 295.332 163.959 297.607L164.939 299.351C169.317 296.891 172.686 293.462 175.026 289.077L173.261 288.136ZM163.963 297.605C159.928 299.849 155.037 300.994 149.25 300.994V302.994C155.3 302.994 160.542 301.796 164.935 299.353L163.963 297.605ZM149.392 288.506C151.298 288.506 152.973 287.857 154.367 286.572L153.011 285.101C151.99 286.042 150.801 286.506 149.392 286.506V288.506ZM154.367 286.572C155.735 285.311 156.747 283.558 157.446 281.384L155.542 280.772C154.916 282.718 154.058 284.137 153.011 285.101L154.367 286.572ZM157.446 281.384C158.149 279.2 158.489 276.642 158.489 273.727H156.489C156.489 276.495 156.165 278.837 155.542 280.772L157.446 281.384ZM158.489 273.727C158.489 270.791 158.15 268.23 157.445 266.067L155.543 266.686C156.165 268.595 156.489 270.935 156.489 273.727H158.489ZM157.446 266.07C156.747 263.897 155.735 262.144 154.367 260.883L153.011 262.353C154.058 263.318 154.916 264.737 155.542 266.683L157.446 266.07ZM154.367 260.883C152.973 259.598 151.298 258.949 149.392 258.949V260.949C150.801 260.949 151.99 261.412 153.011 262.353L154.367 260.883ZM149.392 258.949C147.408 258.949 145.665 259.587 144.219 260.87L145.546 262.366C146.609 261.423 147.873 260.949 149.392 260.949V258.949ZM144.219 260.87C142.796 262.131 141.756 263.888 141.054 266.07L142.958 266.683C143.581 264.745 144.458 263.33 145.546 262.366L144.219 260.87ZM141.055 266.067C140.35 268.23 140.011 270.791 140.011 273.727H142.011C142.011 270.935 142.335 268.595 142.957 266.686L141.055 266.067ZM140.011 273.727C140.011 276.642 140.351 279.2 141.054 281.384L142.958 280.772C142.335 278.837 142.011 276.495 142.011 273.727H140.011ZM141.054 281.384C141.756 283.566 142.796 285.324 144.219 286.585L145.546 285.088C144.458 284.124 143.581 282.709 142.958 280.772L141.054 281.384ZM144.219 286.585C145.665 287.868 147.408 288.506 149.392 288.506V286.506C147.873 286.506 146.609 286.031 145.546 285.088L144.219 286.585ZM185.472 321.455H184.472V322.455H185.472V321.455ZM185.472 246.455V245.455H184.472V246.455H185.472ZM204.932 246.455H205.932V245.455H204.932V246.455ZM204.932 255.972H203.932V256.972H204.932V255.972ZM205.358 255.972V256.972H206.045L206.291 256.331L205.358 255.972ZM208.483 250.893L209.229 251.559L209.234 251.554L208.483 250.893ZM213.597 247.165L214.01 248.076L214.018 248.071L213.597 247.165ZM230.962 248.621L230.453 249.482L230.455 249.483L230.962 248.621ZM238.916 257.676L238.02 258.119L238.022 258.123L238.916 257.676ZM239.058 289.388L238.155 288.959L238.153 288.963L239.058 289.388ZM231.246 298.656L230.717 297.808L230.714 297.809L231.246 298.656ZM213.703 300.467L213.309 301.386L213.316 301.389L213.322 301.392L213.703 300.467ZM208.589 297.023L207.865 297.712L207.871 297.718L207.877 297.724L208.589 297.023ZM205.358 292.051L206.283 291.672L206.029 291.051H205.358V292.051ZM205.074 292.051V291.051H204.074V292.051H205.074ZM205.074 321.455V322.455H206.074V321.455H205.074ZM205.678 280.616L204.735 280.95L204.737 280.957L204.74 280.964L205.678 280.616ZM208.661 285.091L208.02 285.859L208.028 285.866L208.036 285.872L208.661 285.091ZM217.893 285.126L218.524 285.903L218.525 285.902L217.893 285.126ZM220.805 280.688L219.863 280.354L219.86 280.361L220.805 280.688ZM220.805 266.803L219.859 267.126L219.861 267.133L219.864 267.14L220.805 266.803ZM217.893 262.364L217.255 263.133L217.263 263.14L217.271 263.146L217.893 262.364ZM208.661 262.364L209.283 263.146L209.285 263.145L208.661 262.364ZM205.678 266.803L204.738 266.459L204.736 266.465L205.678 266.803ZM186.472 321.455V246.455H184.472V321.455H186.472ZM185.472 247.455H204.932V245.455H185.472V247.455ZM203.932 246.455V255.972H205.932V246.455H203.932ZM204.932 256.972H205.358V254.972H204.932V256.972ZM206.291 256.331C206.956 254.601 207.933 253.012 209.229 251.559L207.737 250.228C206.287 251.853 205.18 253.649 204.425 255.613L206.291 256.331ZM209.234 251.554C210.507 250.105 212.093 248.945 214.01 248.075L213.184 246.254C211.028 247.231 209.205 248.556 207.732 250.233L209.234 251.554ZM214.018 248.071C215.898 247.197 218.117 246.744 220.699 246.744V244.744C217.883 244.744 215.367 245.238 213.175 246.258L214.018 248.071ZM220.699 246.744C224.11 246.744 227.356 247.651 230.453 249.482L231.471 247.76C228.081 245.756 224.485 244.744 220.699 244.744V246.744ZM230.455 249.483C233.521 251.283 236.052 254.137 238.02 258.119L239.813 257.233C237.709 252.976 234.936 249.794 231.468 247.758L230.455 249.483ZM238.022 258.123C239.989 262.057 241.006 267.239 241.006 273.727H243.006C243.006 267.053 241.963 261.534 239.811 257.229L238.022 258.123ZM241.006 273.727C241.006 279.929 240.037 284.99 238.155 288.959L239.962 289.816C242.009 285.499 243.006 280.121 243.006 273.727H241.006ZM238.153 288.963C236.278 292.965 233.791 295.892 230.717 297.808L231.775 299.505C235.234 297.349 237.956 294.096 239.964 289.812L238.153 288.963ZM230.714 297.809C227.632 299.744 224.254 300.71 220.557 300.71V302.71C224.625 302.71 228.372 301.641 231.777 299.503L230.714 297.809ZM220.557 300.71C218.108 300.71 215.956 300.314 214.084 299.543L213.322 301.392C215.475 302.278 217.892 302.71 220.557 302.71V300.71ZM214.097 299.548C212.22 298.744 210.626 297.667 209.302 296.321L207.877 297.724C209.394 299.267 211.209 300.487 213.309 301.386L214.097 299.548ZM209.314 296.333C208.001 294.954 206.993 293.402 206.283 291.672L204.433 292.431C205.238 294.394 206.384 296.156 207.865 297.712L209.314 296.333ZM205.358 291.051H205.074V293.051H205.358V291.051ZM204.074 292.051V321.455H206.074V292.051H204.074ZM205.074 320.455H185.472V322.455H205.074V320.455ZM203.648 273.727C203.648 276.461 204.001 278.876 204.735 280.95L206.62 280.283C205.981 278.475 205.648 276.296 205.648 273.727H203.648ZM204.74 280.964C205.497 283.008 206.58 284.659 208.02 285.859L209.301 284.323C208.184 283.392 207.279 282.06 206.615 280.269L204.74 280.964ZM208.036 285.872C209.53 287.067 211.305 287.653 213.312 287.653V285.653C211.721 285.653 210.396 285.198 209.285 284.31L208.036 285.872ZM213.312 287.653C215.313 287.653 217.07 287.082 218.524 285.903L217.263 284.35C216.207 285.207 214.91 285.653 213.312 285.653V287.653ZM218.525 285.902C219.978 284.718 221.041 283.067 221.751 281.014L219.86 280.361C219.244 282.143 218.366 283.451 217.262 284.351L218.525 285.902ZM221.748 281.021C222.482 278.945 222.835 276.506 222.835 273.727H220.835C220.835 276.346 220.502 278.547 219.863 280.354L221.748 281.021ZM222.835 273.727C222.835 270.949 222.482 268.52 221.747 266.465L219.864 267.14C220.501 268.92 220.835 271.108 220.835 273.727H222.835ZM221.752 266.479C221.043 264.403 219.978 262.745 218.516 261.581L217.271 263.146C218.366 264.018 219.242 265.319 219.859 267.126L221.752 266.479ZM218.532 261.594C217.079 260.388 215.319 259.801 213.312 259.801V261.801C214.904 261.801 216.198 262.256 217.255 263.133L218.532 261.594ZM213.312 259.801C211.305 259.801 209.53 260.388 208.036 261.583L209.285 263.145C210.396 262.256 211.721 261.801 213.312 261.801V259.801ZM208.038 261.581C206.582 262.74 205.495 264.39 204.738 266.459L206.617 267.146C207.28 265.332 208.182 264.023 209.283 263.146L208.038 261.581ZM204.736 266.465C204.001 268.52 203.648 270.949 203.648 273.727H205.648C205.648 271.108 205.982 268.92 206.619 267.14L204.736 266.465ZM300.076 264.21V265.21H301.117L301.075 264.169L300.076 264.21ZM282.036 264.21L281.039 264.295L281.117 265.21H282.036V264.21ZM280.864 261.334L281.625 260.685L281.625 260.685L280.864 261.334ZM278.201 259.487L277.812 260.408L277.824 260.414L277.836 260.418L278.201 259.487ZM270.317 259.736L269.863 258.845L269.863 258.845L270.317 259.736ZM268.542 262.364L269.541 262.393L269.542 262.368L269.541 262.343L268.542 262.364ZM269.571 264.601L268.876 265.32L268.882 265.326L268.888 265.331L269.571 264.601ZM273.797 266.199L273.618 267.183L273.621 267.183L273.797 266.199ZM284.877 268.188L285.056 267.204L285.053 267.203L284.877 268.188ZM297.341 273.337L296.678 274.085L296.685 274.091L297.341 273.337ZM301.496 282.96L302.496 282.966L302.496 282.954L301.496 282.96ZM298.016 293.081L297.236 292.455L297.235 292.456L298.016 293.081ZM288.676 299.686L289.041 300.617L289.044 300.616L288.676 299.686ZM255.651 296.881L255.063 297.689L255.065 297.691L255.651 296.881ZM247.803 283.386V282.386H246.701L246.808 283.483L247.803 283.386ZM267.263 283.386L268.252 283.237L268.124 282.386H267.263V283.386ZM269.82 287.399L269.272 288.235L269.28 288.241L269.288 288.246L269.82 287.399ZM279.799 287.861L279.337 286.974L279.33 286.977L279.799 287.861ZM281.61 285.233L282.61 285.254L282.61 285.232L282.609 285.21L281.61 285.233ZM280.047 282.747L279.521 283.597L279.53 283.603L280.047 282.747ZM275.36 281.256L275.535 280.271L275.534 280.271L275.36 281.256ZM265.701 279.551L265.874 278.566L265.873 278.566L265.701 279.551ZM253.201 274.011L253.902 273.298L253.902 273.298L253.201 274.011ZM249.081 263.5L250.081 263.506L250.081 263.494L249.081 263.5ZM252.064 253.876L251.271 253.267L251.27 253.268L252.064 253.876ZM260.765 247.839L261.107 248.779L261.111 248.778L260.765 247.839ZM292.867 250.645L292.283 251.457L292.285 251.458L292.867 250.645ZM300.076 263.21H282.036V265.21H300.076V263.21ZM283.032 264.125C282.921 262.817 282.455 261.658 281.625 260.685L280.103 261.983C280.646 262.62 280.961 263.378 281.039 264.295L283.032 264.125ZM281.625 260.685C280.82 259.742 279.791 259.036 278.565 258.556L277.836 260.418C278.788 260.791 279.534 261.316 280.103 261.983L281.625 260.685ZM278.59 258.566C277.387 258.058 276.068 257.812 274.65 257.812V259.812C275.835 259.812 276.884 260.017 277.812 260.408L278.59 258.566ZM274.65 257.812C272.848 257.812 271.241 258.142 269.863 258.845L270.771 260.627C271.808 260.098 273.089 259.812 274.65 259.812V257.812ZM269.863 258.845C269.15 259.208 268.553 259.682 268.139 260.295C267.719 260.917 267.526 261.626 267.542 262.384L269.541 262.343C269.533 261.965 269.625 261.668 269.796 261.414C269.974 261.151 270.277 260.879 270.771 260.627L269.863 258.845ZM267.542 262.334C267.508 263.482 268.013 264.486 268.876 265.32L270.266 263.882C269.709 263.343 269.528 262.855 269.541 262.393L267.542 262.334ZM268.888 265.331C269.849 266.23 271.514 266.8 273.618 267.183L273.976 265.215C271.914 264.84 270.761 264.345 270.255 263.871L268.888 265.331ZM273.621 267.183L284.7 269.172L285.053 267.203L273.974 265.215L273.621 267.183ZM284.698 269.171C290.197 270.173 294.148 271.841 296.678 274.085L298.005 272.589C295.089 270.002 290.731 268.238 285.056 267.204L284.698 269.171ZM296.685 274.091C299.19 276.272 300.474 279.195 300.496 282.966L302.496 282.954C302.471 278.676 300.985 275.183 297.998 272.582L296.685 274.091ZM300.496 282.954C300.474 286.625 299.383 289.777 297.236 292.455L298.796 293.706C301.242 290.655 302.471 287.06 302.496 282.966L300.496 282.954ZM297.235 292.456C295.088 295.14 292.128 297.247 288.309 298.756L289.044 300.616C293.132 299 296.398 296.704 298.797 293.706L297.235 292.456ZM288.312 298.755C284.518 300.24 280.159 300.994 275.218 300.994V302.994C280.361 302.994 284.975 302.209 289.041 300.617L288.312 298.755ZM275.218 300.994C267.007 300.994 260.718 299.313 256.237 296.071L255.065 297.691C260.006 301.266 266.762 302.994 275.218 302.994V300.994ZM256.239 296.072C251.774 292.825 249.314 288.582 248.798 283.289L246.808 283.483C247.381 289.365 250.153 294.118 255.063 297.689L256.239 296.072ZM247.803 284.386H267.263V282.386H247.803V284.386ZM266.274 283.535C266.577 285.541 267.586 287.13 269.272 288.235L270.368 286.563C269.165 285.774 268.471 284.688 268.252 283.237L266.274 283.535ZM269.288 288.246C270.954 289.294 272.999 289.784 275.36 289.784V287.784C273.27 287.784 271.621 287.351 270.352 286.553L269.288 288.246ZM275.36 289.784C277.265 289.784 278.92 289.459 280.267 288.744L279.33 286.977C278.358 287.493 277.053 287.784 275.36 287.784V289.784ZM280.26 288.748C281.7 287.999 282.577 286.826 282.61 285.254L280.61 285.212C280.595 285.913 280.264 286.491 279.337 286.974L280.26 288.748ZM282.609 285.21C282.577 283.773 281.826 282.654 280.565 281.891L279.53 283.603C280.304 284.071 280.595 284.609 280.61 285.256L282.609 285.21ZM280.574 281.897C279.416 281.18 277.702 280.656 275.535 280.271L275.185 282.24C277.278 282.612 278.69 283.083 279.521 283.597L280.574 281.897ZM275.534 280.271L265.874 278.566L265.527 280.536L275.186 282.24L275.534 280.271ZM265.873 278.566C260.422 277.615 256.475 275.827 253.902 273.298L252.5 274.725C255.466 277.64 259.852 279.546 265.529 280.536L265.873 278.566ZM253.902 273.298C251.345 270.786 250.059 267.551 250.081 263.506L248.081 263.494C248.056 268.019 249.516 271.792 252.5 274.725L253.902 273.298ZM250.081 263.494C250.059 259.894 251 256.911 252.858 254.484L251.27 253.268C249.104 256.097 248.056 259.53 248.081 263.506L250.081 263.494ZM252.857 254.485C254.756 252.012 257.486 250.1 261.107 248.779L260.422 246.9C256.515 248.325 253.444 250.438 251.271 253.267L252.857 254.485ZM261.111 248.778C264.761 247.432 269.125 246.744 274.223 246.744V244.744C268.953 244.744 264.344 245.454 260.419 246.901L261.111 248.778ZM274.223 246.744C281.98 246.744 287.965 248.353 292.283 251.457L293.45 249.833C288.678 246.403 282.233 244.744 274.223 244.744V246.744ZM292.285 251.458C296.595 254.54 298.852 258.772 299.076 264.251L301.075 264.169C300.826 258.095 298.277 253.284 293.448 249.831L292.285 251.458ZM331.734 228.273L332.733 228.31L332.772 227.273H331.734V228.273ZM329.887 278.273V279.273H330.851L330.887 278.31L329.887 278.273ZM313.694 278.273L312.695 278.31L312.73 279.273H313.694V278.273ZM311.848 228.273V227.273H310.81L310.848 228.31L311.848 228.273ZM314.724 299.26L314.017 299.967L314.026 299.976L314.724 299.26ZM311.848 292.193L312.848 292.202L312.848 292.193L312.848 292.184L311.848 292.193ZM314.724 285.268L314.026 284.553L314.021 284.557L314.724 285.268ZM328.68 285.268L327.986 285.988L327.99 285.992L328.68 285.268ZM331.734 292.193L332.734 292.206L332.734 292.195L332.734 292.184L331.734 292.193ZM330.278 297.236L329.43 296.706L329.428 296.709L330.278 297.236ZM326.656 300.822L327.162 301.685L327.172 301.679L326.656 300.822ZM330.735 228.236L328.888 278.236L330.887 278.31L332.733 228.31L330.735 228.236ZM329.887 277.273H313.694V279.273H329.887V277.273ZM314.694 278.236L312.847 228.236L310.848 228.31L312.695 278.31L314.694 278.236ZM311.848 229.273H331.734V227.273H311.848V229.273ZM321.791 301.136C319.306 301.136 317.201 300.28 315.423 298.544L314.026 299.976C316.177 302.076 318.784 303.136 321.791 303.136V301.136ZM315.431 298.553C313.681 296.803 312.826 294.706 312.848 292.202L310.848 292.185C310.822 295.22 311.884 297.834 314.017 299.967L315.431 298.553ZM312.848 292.184C312.826 289.759 313.676 287.71 315.427 285.98L314.021 284.557C311.89 286.662 310.822 289.229 310.848 292.202L312.848 292.184ZM315.423 285.984C317.201 284.249 319.306 283.392 321.791 283.392V281.392C318.784 281.392 316.177 282.453 314.026 284.553L315.423 285.984ZM321.791 283.392C324.119 283.392 326.171 284.238 327.986 285.988L329.374 284.549C327.212 282.463 324.671 281.392 321.791 281.392V283.392ZM327.99 285.992C329.813 287.73 330.713 289.783 330.734 292.202L332.734 292.184C332.708 289.206 331.571 286.642 329.37 284.545L327.99 285.992ZM330.734 292.18C330.713 293.85 330.277 295.351 329.43 296.706L331.126 297.766C332.173 296.09 332.708 294.229 332.734 292.206L330.734 292.18ZM329.428 296.709C328.587 298.067 327.494 299.149 326.139 299.966L327.172 301.679C328.801 300.697 330.122 299.388 331.128 297.762L329.428 296.709ZM326.149 299.96C324.814 300.745 323.367 301.136 321.791 301.136V303.136C323.718 303.136 325.515 302.652 327.162 301.685L326.149 299.96Z" fill="#DF1F5A" style="fill:#DF1F5A;fill:color(display-p3 0.8745 0.1216 0.3529);fill-opacity:1;" mask="url(#path-1-outside-1_79_233)"/>
<g filter="url(#filter0_d_79_233)">
<path d="M98.1521 101.863C94.6507 103.183 90.6455 103.167 86.965 101.502C57.5248 88.1892 24.6296 87.1432 -5.65349 98.5596C-35.9366 109.976 -59.9546 132.478 -73.2796 161.912C-76.61 169.273 -85.2699 172.538 -92.6308 169.207C-99.9917 165.877 -103.258 157.213 -99.926 149.856C-83.3832 113.301 -53.5692 85.3637 -15.9715 71.1898C21.6261 57.0159 62.4636 58.3188 99.0211 74.8553C106.38 78.1812 109.647 86.8457 106.316 94.2065C104.651 97.8869 101.653 100.543 98.1521 101.863Z" fill="#DF1F5A" style="fill:#DF1F5A;fill:color(display-p3 0.8745 0.1216 0.3529);fill-opacity:1;"/>
<path d="M121.78 49.6334C118.287 50.95 114.294 50.9391 110.619 49.2873C67.0647 29.685 18.5892 28.1224 -25.8866 44.8892C-70.3623 61.6561 -105.742 94.8313 -125.516 138.308C-128.861 145.658 -137.525 148.91 -144.882 145.563C-152.238 142.22 -155.486 133.549 -152.144 126.194C-129.14 75.6285 -87.9683 37.0339 -36.2047 17.5196C15.559 -1.99477 71.9628 -0.185133 122.622 22.6098C129.989 25.9279 133.273 34.5856 129.955 41.952C128.295 45.6458 125.29 48.31 121.78 49.6334Z" fill="#DF1F5A" style="fill:#DF1F5A;fill:color(display-p3 0.8745 0.1216 0.3529);fill-opacity:1;"/>
<path d="M56.9148 273.32C72.2412 273.32 84.6656 260.962 84.6656 245.718C84.6656 230.473 72.2412 218.115 56.9148 218.115C41.5885 218.115 29.1641 230.473 29.1641 245.718C29.1641 260.962 41.5885 273.32 56.9148 273.32Z" fill="#DF1F5A" style="fill:#DF1F5A;fill:color(display-p3 0.8745 0.1216 0.3529);fill-opacity:1;"/>
<path d="M89.1011 245.575C89.1011 262.989 74.7046 277.13 56.9149 277.13C39.1253 277.13 24.7288 262.989 24.7288 245.575C24.7288 228.161 39.1253 214.02 56.9149 214.02C74.7046 214.02 89.1011 228.161 89.1011 245.575Z" stroke="#DF1F5A" style="stroke:#DF1F5A;stroke:color(display-p3 0.8745 0.1216 0.3529);stroke-opacity:1;" stroke-width="1.5"/>
<path d="M106.234 245.575C106.234 272.4 84.1668 294.17 56.9149 294.17C29.6629 294.17 7.5957 272.4 7.5957 245.575C7.5957 218.75 29.6629 196.98 56.9149 196.98C84.1668 196.98 106.234 218.75 106.234 245.575Z" stroke="#DF1F5A" style="stroke:#DF1F5A;stroke:color(display-p3 0.8745 0.1216 0.3529);stroke-opacity:1;" stroke-width="2"/>
<path d="M119.073 181.42C114.867 181.42 110.672 180.141 107.445 177.574C93.7299 166.659 75.6262 160.649 56.4574 160.649C37.2886 160.649 19.1849 166.659 5.46989 177.574C-0.994933 182.729 -11.4721 182.703 -17.894 177.488C-24.3158 172.281 -24.2727 163.876 -17.7863 158.717C2.15691 142.842 28.5219 134.1 56.4574 134.1C84.3929 134.1 110.758 142.842 130.701 158.717C137.188 163.877 137.231 172.281 130.809 177.488C127.582 180.106 123.322 181.42 119.073 181.42Z" fill="#DF1F5A" style="fill:#DF1F5A;fill:color(display-p3 0.8745 0.1216 0.3529);fill-opacity:1;"/>
<path d="M134.812 56.8125C133.328 58.2971 132.494 60.3104 132.494 62.4096C132.494 64.5088 133.328 66.5221 134.812 68.0067L162.806 96L134.812 123.993C134.056 124.724 133.453 125.597 133.038 126.563C132.623 127.529 132.405 128.568 132.396 129.619C132.387 130.67 132.587 131.713 132.985 132.685C133.383 133.658 133.971 134.542 134.714 135.286C135.458 136.029 136.341 136.617 137.314 137.015C138.287 137.413 139.33 137.613 140.381 137.604C141.432 137.595 142.471 137.377 143.437 136.962C144.403 136.547 145.276 135.944 146.007 135.188L174 107.194L201.993 135.188C203.486 136.63 205.486 137.428 207.562 137.41C209.638 137.391 211.623 136.559 213.091 135.091C214.559 133.623 215.391 131.638 215.409 129.562C215.427 127.486 214.629 125.486 213.187 123.993L185.194 96L213.187 68.0067C214.629 66.5136 215.427 64.5138 215.409 62.4381C215.391 60.3624 214.559 58.3768 213.091 56.909C211.623 55.4411 209.638 54.6086 207.562 54.5905C205.486 54.5725 203.486 55.3704 201.993 56.8125L174 84.8059L146.007 56.8125C144.522 55.3284 142.509 54.4946 140.409 54.4946C138.31 54.4946 136.297 55.3284 134.812 56.8125Z" fill="#DF1F5A" style="fill:#DF1F5A;fill:color(display-p3 0.8745 0.1216 0.3529);fill-opacity:1;"/>
</g>
</g>
<defs>
<filter id="filter0_d_79_233" x="-177.459" y="-15.9067" width="416.868" height="339.077" filterUnits="userSpaceOnUse" color-interpolation-filters="sRGB">
<feFlood flood-opacity="0" result="BackgroundImageFix"/>
<feColorMatrix in="SourceAlpha" type="matrix" values="0 0 0 0 0 0 0 0 0 0 0 0 0 0 0 0 0 0 127 0" result="hardAlpha"/>
<feOffset dy="4"/>
<feGaussianBlur stdDeviation="12"/>
<feComposite in2="hardAlpha" operator="out"/>
<feColorMatrix type="matrix" values="0 0 0 0 0.87451 0 0 0 0 0.121569 0 0 0 0 0.352941 0 0 0 0.3 0"/>
<feBlend mode="normal" in2="BackgroundImageFix" result="effect1_dropShadow_79_233"/>
<feBlend mode="normal" in="SourceGraphic" in2="effect1_dropShadow_79_233" result="shape"/>
</filter>
<clipPath id="clip0_79_233">
<rect width="375" height="325" fill="white" style="fill:white;fill-opacity:1;"/>
</clipPath>
</defs>
</svg>
