<svg width="4" height="19" viewBox="0 0 4 19" fill="none" xmlns="http://www.w3.org/2000/svg">
<path d="M4.00012 16.9994C4.00012 18.104 3.10469 18.9994 2.00012 18.9994C0.895553 18.9994 0.000122309 18.104 0.000122309 16.9994L0.000122309 8.99939C0.000122309 7.89482 0.895553 6.99939 2.00012 6.99939C3.10469 6.99939 4.00012 7.89482 4.00012 8.99939L4.00012 16.9994Z" fill="white"/>
<path d="M2 2.38419e-07C0.895431 2.38419e-07 2.38419e-07 0.895431 2.38419e-07 2C2.38419e-07 3.10457 0.895431 4 2 4C3.10457 4 4 3.10457 4 2C4 0.895431 3.10457 2.38419e-07 2 2.38419e-07Z" fill="white"/>
</svg>
