<svg width="16" height="19" viewBox="0 0 16 19" fill="none" xmlns="http://www.w3.org/2000/svg">
    <path
        d="M14.2222 0H1.77778C0.791111 0 0 0.814286 0 1.80952V14.4762C0 15.4714 0.791111 16.2857 1.77778 16.2857H5.33333L8 19L10.6667 16.2857H14.2222C15.2 16.2857 16 15.4714 16 14.4762V1.80952C16 0.814286 15.2 0 14.2222 0ZM8.88889 14.4762H7.11111V12.6667H8.88889V14.4762ZM10.7289 7.46429L9.92889 8.29667C9.28889 8.95714 8.88889 9.5 8.88889 10.8571H7.11111V10.4048C7.11111 9.40952 7.51111 8.50476 8.15111 7.84429L9.25333 6.70429C9.58222 6.37857 9.77778 5.92619 9.77778 5.42857C9.77778 4.43333 8.97778 3.61905 8 3.61905C7.02222 3.61905 6.22222 4.43333 6.22222 5.42857H4.44444C4.44444 3.42905 6.03556 1.80952 8 1.80952C9.96444 1.80952 11.5556 3.42905 11.5556 5.42857C11.5556 6.22476 11.2356 6.94857 10.7289 7.46429Z"
        fill="white" />
</svg>
