<svg xmlns="http://www.w3.org/2000/svg" viewBox="0 0 128 128" id="premium-quality">
    <path
        d="m54.441 97.659-13.958 18.524a1 1 0 0 1-1.777-.4L35 98.111l-18.021 1.307a1.034 1.034 0 0 1-.946-.52 1 1 0 0 1 .08-1.081l11.7-15.53 4.962 2.863a1.263 1.263 0 0 1 .46.46L36.353 91a11.277 11.277 0 0 0 9.742 5.626h6.23a1.683 1.683 0 0 1 .635.142 12.891 12.891 0 0 1 1.481.891Zm57.445.158-11.721-15.554-5 2.89a1.24 1.24 0 0 0-.455.455l-3.118 5.4a11.278 11.278 0 0 1-9.742 5.624h-6.23a1.25 1.25 0 0 0-.625.167l-1.449.837 13.976 18.548a1.015 1.015 0 0 0 1.017.374 1 1 0 0 0 .761-.771L93 98.111l18.068 1.308a1 1 0 0 0 .814-1.6ZM92.366 54.42a28.4 28.4 0 1 1-28.4-28.4 28.428 28.428 0 0 1 28.4 28.4ZM83.4 48.347a4.979 4.979 0 0 0-4-3.395L71.883 43.8 68.467 37a5 5 0 0 0-8.935 0l-3.416 6.8-7.516 1.152a5 5 0 0 0-2.759 8.5l5.404 5.348-1.232 7.5a4.975 4.975 0 0 0 2 4.856 5.039 5.039 0 0 0 5.232.4L64 68.065l6.751 3.488a5.045 5.045 0 0 0 5.241-.395 4.976 4.976 0 0 0 1.995-4.858l-1.232-7.5 5.409-5.349a4.981 4.981 0 0 0 1.236-5.104Zm-9.36 18.605-1.566-9.545 6.877-6.8a1 1 0 0 0-.552-1.7l-9.562-1.46-4.343-8.647a1 1 0 0 0-1.787 0l-4.343 8.643-9.564 1.463a1 1 0 0 0-.552 1.7l6.877 6.8-1.565 9.546a1 1 0 0 0 .4.971 1.008 1.008 0 0 0 1.048.08L64 63.563 72.593 68a.993.993 0 0 0 .459.11 1.008 1.008 0 0 0 .988-1.158ZM106 58.045l-3.115 5.4a5.259 5.259 0 0 0-.7 2.625v6.229a7.271 7.271 0 0 1-3.625 6.278l-5.4 3.115a5.244 5.244 0 0 0-1.921 1.923l-3.116 5.395a7.268 7.268 0 0 1-6.278 3.625h-6.23a5.257 5.257 0 0 0-2.625.7l-5.4 3.116a7.272 7.272 0 0 1-7.25 0l-5.4-3.115a5.246 5.246 0 0 0-2.625-.7h-6.23a7.268 7.268 0 0 1-6.278-3.625L36.7 83.61a5.264 5.264 0 0 0-1.922-1.923l-5.4-3.113a7.274 7.274 0 0 1-3.625-6.279v-6.23a5.253 5.253 0 0 0-.7-2.625l-3.114-5.4a7.27 7.27 0 0 1 0-7.25l3.115-5.4a5.256 5.256 0 0 0 .7-2.624v-6.23a7.269 7.269 0 0 1 3.625-6.278l5.4-3.115a5.244 5.244 0 0 0 1.921-1.914l3.115-5.394a7.268 7.268 0 0 1 6.278-3.625h6.23a5.258 5.258 0 0 0 2.624-.7l5.4-3.116a7.272 7.272 0 0 1 7.25 0l5.4 3.115a5.252 5.252 0 0 0 2.625.7h6.23a7.268 7.268 0 0 1 6.278 3.625l3.115 5.395a5.264 5.264 0 0 0 1.922 1.923l5.4 3.114a7.269 7.269 0 0 1 3.625 6.278v6.23a5.252 5.252 0 0 0 .7 2.624l3.114 5.4a7.27 7.27 0 0 1-.006 7.247Zm-9.634-3.625a32.4 32.4 0 1 0-32.4 32.4 32.432 32.432 0 0 0 32.4-32.4Z"></path>
</svg>